<?xml version="1.0" encoding="utf-8"?>
<!-- Generator: Adobe Illustrator 19.2.0, SVG Export Plug-In . SVG Version: 6.00 Build 0)  -->
<svg version="1.1" id="Layer_1" xmlns="http://www.w3.org/2000/svg" xmlns:xlink="http://www.w3.org/1999/xlink" x="0px" y="0px"
	 viewBox="0 0 800 800" style="enable-background:new 0 0 800 800;" xml:space="preserve">
<style type="text/css">
	.st0{fill:#F2D6E6;}
	.st1{fill:#AA89CE;}
	.st2{fill:#72A1B2;}
	.st3{fill:#4EDDA6;}
	.st4{fill:#3F3956;}
	.st5{fill:#528466;}
	.st6{fill:#DED9B4;}
	.st7{fill:#FEFFE6;}
	.st8{fill:#FEFFCE;}
	.st9{fill:#E8ECB1;}
	.st10{fill:#D1D3D4;}
	.st11{fill:#B7BCCD;}
	.st12{fill:#C8E3CE;}
	.st13{fill:#B3DBCD;}
	.st14{fill:#C170C1;}
	.st15{fill:#E8E9EB;}
	.st16{fill:#E7DAFF;}
	.st17{fill:#B7DFE2;}
	.st18{fill:#A7C1B5;}
	.st19{fill:#94C7D3;}
	.st20{fill:#8E688D;}
	.st21{fill:#AE99C9;}
	.st22{fill:#633963;}
	.st23{fill:#7FB29E;}
	.st24{fill:#99CAFF;}
	.st25{fill:#A1AFB4;}
	.st26{fill:#B7A5BF;}
	.st27{fill:#8A979B;}
	.st28{fill:#538196;}
	.st29{fill:#6E877F;}
	.st30{fill:#429686;}
	.st31{fill:#6BAA85;}
	.st32{fill:#60668C;}
	.st33{fill:#55CFF9;}
	.st34{fill:#61235A;}
	.st35{fill:#62347F;}
	.st36{fill:#65477A;}
	.st37{fill:#8E4989;}
	.st38{fill:#797391;}
	.st39{fill:#575756;}
	.st40{fill:#6E6491;}
	.st41{fill:#934AD3;}
	.st42{fill:#877993;}
	.st43{fill:#AA9FE2;}
	.st44{fill:#8D59B2;}
	.st45{fill:#D8CAF9;}
	.st46{fill:#C0B6E0;}
	.st47{fill:#A397B2;}
	.st48{fill:#806AAC;}
	.st49{fill:#CFCAE5;}
	.st50{fill:#677C6E;}
	.st51{fill:#436A7B;}
	.st52{fill:#2B4854;}
	.st53{fill:#727271;}
	.st54{fill:#8FC1AD;}
</style>
<g>
	<rect class="st0" width="800" height="800"/>
	<g>
		<path class="st1" d="M397.8,753.8h0.7V753c0-0.9,0.1-1.6,0.3-2.2c0.2-0.5,0.6-0.9,1.2-1.2c0.6-0.2,1.3-0.4,2.3-0.4
			c1.7,0,2.6,0.4,2.6,1.3c0,0.3-0.1,0.5-0.3,0.7c-0.2,0.2-0.4,0.3-0.6,0.3c-0.1,0-0.3,0-0.6-0.1c-0.3,0-0.5-0.1-0.7-0.1
			c-0.5,0-0.9,0.2-1,0.5s-0.2,0.8-0.2,1.3v0.7h0.7c1.1,0,1.7,0.3,1.7,1c0,0.5-0.1,0.8-0.4,0.9c-0.3,0.1-0.7,0.2-1.2,0.2h-0.7v7.8
			c0,0.6-0.1,1-0.4,1.3s-0.6,0.5-1.1,0.5c-0.4,0-0.8-0.2-1-0.5c-0.3-0.3-0.4-0.7-0.4-1.3v-7.8h-0.8c-0.4,0-0.8-0.1-1-0.3
			s-0.4-0.4-0.4-0.8C396.3,754.2,396.8,753.8,397.8,753.8"/>
		<path class="st1" d="M407.3,761.3v2.4c0,0.6-0.1,1-0.4,1.3s-0.6,0.4-1.1,0.4c-0.4,0-0.8-0.1-1-0.5c-0.3-0.3-0.4-0.7-0.4-1.3v-8.2
			c0-1.3,0.5-2,1.4-2c0.5,0,0.8,0.2,1.1,0.5c0.2,0.3,0.3,0.8,0.4,1.4c0.3-0.6,0.7-1.1,1.1-1.4c0.4-0.3,0.9-0.5,1.5-0.5
			s1.2,0.2,1.8,0.5c0.6,0.3,0.9,0.7,0.9,1.2c0,0.4-0.1,0.7-0.4,0.9c-0.2,0.2-0.5,0.3-0.8,0.3c-0.1,0-0.4-0.1-0.8-0.2
			c-0.4-0.1-0.8-0.2-1.1-0.2c-0.4,0-0.8,0.1-1,0.3c-0.3,0.2-0.5,0.6-0.6,1c-0.2,0.4-0.3,1-0.3,1.6
			C407.4,759.6,407.3,760.4,407.3,761.3"/>
		<path class="st1" d="M420.8,760.3h-5.7c0,0.7,0.1,1.2,0.4,1.8c0.3,0.5,0.6,0.9,1,1.1c0.4,0.3,0.9,0.4,1.4,0.4c0.3,0,0.7,0,1-0.1
			s0.6-0.2,0.8-0.4c0.3-0.2,0.5-0.4,0.8-0.6c0.2-0.2,0.5-0.5,0.9-0.8c0.2-0.1,0.4-0.2,0.6-0.2c0.3,0,0.5,0.1,0.7,0.2
			c0.2,0.2,0.3,0.4,0.3,0.7s-0.1,0.6-0.3,0.9c-0.2,0.4-0.5,0.7-0.9,1s-0.9,0.6-1.6,0.8c-0.6,0.2-1.4,0.3-2.2,0.3
			c-1.9,0-3.3-0.5-4.4-1.6c-1-1.1-1.6-2.5-1.6-4.4c0-0.9,0.1-1.7,0.4-2.4s0.6-1.4,1.1-1.9s1.1-0.9,1.8-1.2c0.7-0.3,1.5-0.4,2.4-0.4
			c1.1,0,2.1,0.2,2.9,0.7s1.4,1.1,1.8,1.9c0.4,0.8,0.6,1.5,0.6,2.3c0,0.7-0.2,1.2-0.6,1.4C422.2,760.1,421.6,760.3,420.8,760.3
			 M415.1,758.6h5.3c-0.1-1-0.3-1.7-0.8-2.2s-1.1-0.7-1.9-0.7c-0.7,0-1.3,0.2-1.8,0.8C415.5,756.9,415.2,757.6,415.1,758.6"/>
		<path class="st1" d="M433,760.3h-5.7c0,0.7,0.1,1.2,0.4,1.8c0.3,0.5,0.6,0.9,1,1.1c0.4,0.3,0.9,0.4,1.4,0.4c0.3,0,0.7,0,1-0.1
			s0.6-0.2,0.8-0.4c0.3-0.2,0.5-0.4,0.7-0.6c0.2-0.2,0.5-0.5,0.9-0.8c0.2-0.1,0.4-0.2,0.6-0.2c0.3,0,0.5,0.1,0.7,0.2
			c0.2,0.2,0.3,0.4,0.3,0.7s-0.1,0.6-0.3,0.9c-0.2,0.4-0.5,0.7-0.9,1s-0.9,0.6-1.6,0.8c-0.6,0.2-1.4,0.3-2.2,0.3
			c-1.9,0-3.3-0.5-4.4-1.6c-1-1.1-1.6-2.5-1.6-4.4c0-0.9,0.1-1.7,0.4-2.4s0.6-1.4,1.1-1.9s1.1-0.9,1.8-1.2c0.7-0.3,1.5-0.4,2.4-0.4
			c1.1,0,2.1,0.2,3,0.7c0.8,0.5,1.4,1.1,1.8,1.9c0.4,0.8,0.6,1.5,0.6,2.3c0,0.7-0.2,1.2-0.6,1.4C434.3,760.1,433.7,760.3,433,760.3
			 M427.2,758.6h5.3c-0.1-1-0.3-1.7-0.8-2.2s-1.1-0.7-1.9-0.7c-0.7,0-1.3,0.2-1.8,0.8C427.6,756.9,427.3,757.6,427.2,758.6"/>
		<path class="st1" d="M439.4,755.2v0.3c0.5-0.7,1.1-1.2,1.7-1.5s1.3-0.5,2-0.5c0.9,0,1.7,0.2,2.5,0.7s1.4,1.1,1.8,2s0.7,2,0.7,3.2
			c0,0.9-0.1,1.7-0.4,2.5c-0.2,0.8-0.6,1.4-1,1.9s-1,0.9-1.6,1.2s-1.3,0.4-2,0.4c-0.8,0-1.5-0.2-2.1-0.5s-1.1-0.8-1.6-1.5v4.4
			c0,1.3-0.5,1.9-1.4,1.9c-0.6,0-0.9-0.2-1.1-0.5s-0.3-0.8-0.3-1.5v-12.6c0-0.6,0.1-1,0.4-1.2c0.2-0.3,0.6-0.4,1-0.4s0.8,0.1,1,0.4
			C439.3,754.3,439.4,754.7,439.4,755.2 M445.1,759.5c0-0.8-0.1-1.4-0.4-2c-0.2-0.6-0.6-1-1-1.3s-0.9-0.5-1.4-0.5
			c-0.8,0-1.5,0.3-2,1c-0.6,0.6-0.8,1.6-0.8,2.8s0.3,2.1,0.8,2.7c0.6,0.6,1.2,1,2,1c0.5,0,0.9-0.1,1.4-0.4c0.4-0.3,0.7-0.7,1-1.3
			C445,761,445.1,760.3,445.1,759.5"/>
		<path class="st1" d="M451,752.2c-0.4,0-0.8-0.1-1-0.4c-0.3-0.3-0.4-0.6-0.4-1.1c0-0.4,0.2-0.8,0.4-1c0.3-0.3,0.6-0.4,1-0.4
			s0.7,0.1,1,0.4c0.3,0.2,0.4,0.6,0.4,1.1c0,0.4-0.1,0.8-0.4,1.1C451.7,752.1,451.4,752.2,451,752.2 M452.5,755.2v8.5
			c0,0.6-0.1,1-0.4,1.3s-0.6,0.5-1.1,0.5c-0.4,0-0.8-0.2-1-0.5c-0.3-0.3-0.4-0.7-0.4-1.3v-8.4c0-0.6,0.1-1,0.4-1.3s0.6-0.4,1-0.4
			s0.8,0.1,1.1,0.4C452.3,754.3,452.5,754.7,452.5,755.2"/>
		<path class="st1" d="M461.9,764.1l-2.6-4.3l-1.6,1.5v2.3c0,0.6-0.2,1-0.5,1.3s-0.6,0.5-1,0.5c-0.5,0-0.8-0.1-1.1-0.5
			c-0.3-0.3-0.4-0.7-0.4-1.3v-12.5c0-0.6,0.1-1.1,0.4-1.5c0.2-0.3,0.6-0.5,1.1-0.5c0.4,0,0.8,0.2,1.1,0.5c0.3,0.3,0.4,0.8,0.4,1.4
			v7.1l3.3-3.5c0.4-0.4,0.7-0.7,0.9-0.9c0.2-0.2,0.5-0.2,0.8-0.2c0.4,0,0.7,0.1,0.9,0.4c0.2,0.2,0.4,0.5,0.4,0.9s-0.4,1-1.2,1.7
			l-1.6,1.4l3,4.7c0.2,0.4,0.4,0.6,0.5,0.8s0.1,0.4,0.1,0.5c0,0.5-0.1,0.8-0.4,1.1s-0.6,0.4-1,0.4s-0.6-0.1-0.8-0.3
			C462.5,765,462.2,764.6,461.9,764.1"/>
		<path class="st1" d="M468.3,765.5c-0.4,0-0.8-0.1-1.1-0.4c-0.3-0.3-0.5-0.7-0.5-1.2c0-0.4,0.2-0.8,0.5-1.1s0.7-0.5,1.1-0.5
			c0.5,0,0.8,0.2,1.2,0.5c0.3,0.3,0.5,0.7,0.5,1.1c0,0.5-0.2,0.9-0.5,1.2C469.1,765.3,468.7,765.5,468.3,765.5"/>
		<path class="st1" d="M482.8,761.9c0,0.4-0.1,0.8-0.3,1.2c-0.2,0.4-0.5,0.8-1,1.2c-0.4,0.4-1,0.7-1.7,0.9s-1.4,0.3-2.3,0.3
			c-1.8,0-3.2-0.5-4.2-1.6s-1.5-2.5-1.5-4.2c0-1.2,0.2-2.3,0.7-3.2s1.1-1.6,2-2.1s1.9-0.8,3.1-0.8c0.8,0,1.5,0.1,2.1,0.3
			s1.2,0.5,1.6,0.9s0.8,0.7,1,1.1c0.2,0.4,0.4,0.8,0.4,1.1s-0.1,0.6-0.4,0.9c-0.3,0.2-0.6,0.4-0.9,0.4c-0.2,0-0.4-0.1-0.6-0.2
			c-0.2-0.1-0.3-0.3-0.5-0.6c-0.4-0.5-0.7-0.9-1.1-1.2s-0.9-0.4-1.5-0.4c-0.9,0-1.6,0.3-2.1,1s-0.8,1.6-0.8,2.8
			c0,0.6,0.1,1.1,0.2,1.5c0.1,0.5,0.3,0.9,0.6,1.2c0.3,0.3,0.6,0.6,0.9,0.7c0.4,0.2,0.8,0.3,1.2,0.3c0.6,0,1.1-0.1,1.5-0.4
			c0.4-0.3,0.8-0.7,1.1-1.2c0.2-0.3,0.4-0.6,0.6-0.8s0.5-0.3,0.8-0.3c0.4,0,0.7,0.1,0.9,0.4C482.7,761.3,482.8,761.6,482.8,761.9"/>
		<path class="st1" d="M495.5,759.5c0,0.9-0.1,1.7-0.4,2.4s-0.7,1.4-1.2,1.9s-1.1,0.9-1.8,1.2c-0.7,0.3-1.5,0.4-2.4,0.4
			s-1.7-0.1-2.4-0.4c-0.7-0.3-1.3-0.7-1.8-1.2s-0.9-1.2-1.2-1.9c-0.3-0.7-0.4-1.5-0.4-2.4s0.1-1.7,0.4-2.4s0.7-1.4,1.2-1.9
			s1.1-0.9,1.8-1.2c0.7-0.3,1.5-0.4,2.4-0.4s1.7,0.1,2.4,0.4c0.7,0.3,1.3,0.7,1.9,1.2c0.5,0.5,0.9,1.2,1.2,1.9
			C495.3,757.8,495.5,758.6,495.5,759.5 M492.5,759.5c0-1.2-0.3-2.1-0.8-2.8s-1.2-1-2.1-1c-0.6,0-1.1,0.2-1.5,0.4
			c-0.4,0.3-0.8,0.7-1,1.3s-0.4,1.3-0.4,2c0,0.8,0.1,1.4,0.3,2c0.2,0.6,0.6,1,1,1.3s0.9,0.5,1.5,0.5c0.9,0,1.6-0.3,2.1-1
			C492.3,761.6,492.5,760.7,492.5,759.5"/>
		<path class="st1" d="M506.6,759.7v3.9c0,0.6-0.1,1.1-0.4,1.4c-0.3,0.3-0.6,0.5-1.1,0.5c-0.4,0-0.8-0.2-1.1-0.5
			c-0.3-0.3-0.4-0.8-0.4-1.4V759c0-0.7,0-1.3-0.1-1.7s-0.2-0.7-0.4-1c-0.2-0.3-0.6-0.4-1.1-0.4c-1,0-1.6,0.3-1.9,1s-0.5,1.6-0.5,2.8
			v4c0,0.6-0.1,1.1-0.4,1.4c-0.3,0.3-0.6,0.5-1.1,0.5c-0.4,0-0.8-0.2-1.1-0.5c-0.3-0.3-0.4-0.8-0.4-1.4v-8.4c0-0.5,0.1-1,0.4-1.3
			s0.6-0.4,1-0.4s0.7,0.1,1,0.4c0.3,0.3,0.4,0.6,0.4,1.1v0.3c0.5-0.6,1.1-1.1,1.6-1.3c0.6-0.3,1.2-0.4,1.9-0.4
			c0.7,0,1.4,0.1,1.9,0.4c0.5,0.3,1,0.7,1.3,1.3c0.5-0.6,1-1,1.6-1.3s1.2-0.4,1.9-0.4c0.8,0,1.5,0.2,2.1,0.5s1,0.8,1.3,1.4
			c0.3,0.5,0.4,1.4,0.4,2.5v5.7c0,0.6-0.1,1.1-0.4,1.4c-0.3,0.3-0.6,0.5-1.1,0.5c-0.4,0-0.8-0.2-1.1-0.5c-0.3-0.3-0.4-0.8-0.4-1.4
			v-4.9c0-0.6,0-1.1-0.1-1.5c0-0.4-0.2-0.7-0.4-1c-0.2-0.3-0.6-0.4-1.1-0.4c-0.4,0-0.7,0.1-1.1,0.3c-0.3,0.2-0.6,0.5-0.8,0.9
			C506.7,757.6,506.6,758.5,506.6,759.7"/>
		<path class="st1" d="M377.5,766.5c0,0-1.6-0.3-3.2-2s-1.8-3.5-1.8-3.5s2,0.5,3.4,0.6c2.5,0.3,4.8,0.1,5.9,0
			c2.3-0.3,3.6-0.7,4.1-0.8c3-0.7,5.8-2.6,5.8-2.6s0.4,2.2-1.3,4.7c-0.7,1-1.9,2.1-3.4,2.8C381.7,767.9,377.5,766.5,377.5,766.5"/>
		<path class="st1" d="M389.6,753.9c-0.6-0.7-2.4-3.8-6.1-4.3c-1-0.1-6,0.1-9,2.9c-0.3,0.3-1.8,1.6-2.3,4.1
			c-0.4,1.9,0.3,4.1,0.3,4.1s3.3,0.7,5.9,0.6c4-0.1,6-0.5,8.1-1.1c3.1-0.9,5.2-2.5,5.2-2.5S390.1,754.5,389.6,753.9 M378.1,758.6
			c-1.7,0.1-3.1-1.2-3.2-2.8c-0.1-1.7,1.2-3.1,2.9-3.2c1.7-0.1,3.1,1.2,3.2,2.8C381,757.1,379.8,758.5,378.1,758.6 M386.7,756.5
			c-1.1,0.1-2-0.7-2-1.8c-0.1-1.1,0.7-2,1.8-2c1.1-0.1,2,0.7,2,1.8C388.6,755.5,387.7,756.4,386.7,756.5"/>
		<path class="st1" d="M388.1,751.7l1-1.2c0,0,1.3,0.7,2.2,1.9c0.9,1.2,1.4,2.4,1.4,2.4l-1.6,1c0,0-0.5-1.2-1.2-2.2
			C389.1,752.7,388.1,751.7,388.1,751.7"/>
		<path class="st1" d="M391.2,752.5c0.2-0.2,0.7-0.2,0.7-0.5c0-0.4-0.3-1,0.4-1.3c0.7-0.2,0.3,0.2,0.1,0.5c-0.2,0.3-0.2,0.5-0.1,0.9
			c0,0.4-0.3,0.6-0.8,0.8C391,753.2,390.9,752.6,391.2,752.5"/>
		<path class="st1" d="M373.4,753.2c0,0-1.1,1.3-1.4,2.5s-0.2,2.6-0.2,2.6l-1.7-0.6c0,0-0.1-1.6,0.7-3c0.8-1.5,1.9-2.1,1.9-2.1
			L373.4,753.2z"/>
		<path class="st1" d="M370.9,754.7c-0.3-0.2-0.3-0.6-0.5-0.9c-0.2-0.3-0.3-0.1-0.8-0.1s-0.5-0.2-0.6-0.3s-0.2,0.4-0.2,0.4
			s0.1,0.4,0.6,0.4s0.5-0.2,0.7,0.2c0.2,0.5,0.7,0.8,0.7,0.8S371.2,754.9,370.9,754.7"/>
		<path class="st1" d="M379.8,748.5c2.7-0.7,4.4,0.1,4.4,0.1l-0.1,0.8c0,0-2-0.1-3.6,0.1c-1.6,0.2-2.3,0.7-2.3,0.7l-0.3-0.8
			C377.8,749.4,378.6,748.8,379.8,748.5"/>
		
			<rect x="380.9" y="747.2" transform="matrix(0.9365 -0.3506 0.3506 0.9365 -238.0476 181.0803)" class="st1" width="0.4" height="1.5"/>
		<path class="st1" d="M392.6,749.9c0.4,0,0.7,0.3,0.7,0.7s-0.3,0.7-0.6,0.7c-0.4,0-0.7-0.3-0.7-0.6
			C391.9,750.3,392.2,749.9,392.6,749.9"/>
		<path class="st1" d="M368.7,752.5c0.4,0,0.7,0.3,0.7,0.7s-0.3,0.7-0.7,0.7c-0.4,0-0.7-0.3-0.7-0.6
			C368,752.9,368.3,752.6,368.7,752.5"/>
		<path class="st1" d="M380.9,745.7c0.6,0,1.1,0.4,1.2,1c0,0.6-0.4,1.1-1,1.2c-0.6,0-1.1-0.4-1.2-1
			C379.8,746.2,380.3,745.7,380.9,745.7"/>
		<path class="st1" d="M293.8,763.9c0,0.7-0.4,1.1-1,1.1s-0.9-0.3-1-0.9c-0.4,0.6-1.2,0.9-1.9,0.9c-2.1,0-3.4-1.9-3.4-3.8
			c0-2,1.1-4.1,3.3-4.1c0.7,0,1.4,0.2,1.9,0.7V755c0-0.7,0.4-1.1,1-1.1s1,0.5,1,1.1v8.9H293.8z M290.2,759.1c-1.1,0-1.6,1.1-1.6,2.1
			s0.5,2.1,1.6,2.1s1.6-1.1,1.6-2.1C291.8,760.1,291.3,759.1,290.2,759.1"/>
		<path class="st1" d="M296.6,761.8c0.1,1,1,1.5,1.9,1.5c1,0,1.8-0.8,2.3-0.8c0.4,0,0.8,0.4,0.8,0.9c0,0.9-1.8,1.7-3.3,1.7
			c-2.3,0-3.8-1.7-3.8-3.9c0-2.1,1.5-4,3.7-4s3.7,2,3.7,3.7c0,0.6-0.3,0.9-0.9,0.9L296.6,761.8L296.6,761.8z M299.8,760.5
			c-0.1-0.9-0.7-1.6-1.6-1.6s-1.5,0.7-1.6,1.6H299.8z"/>
		<path class="st1" d="M306.9,759.6c-0.4,0-1.2-0.6-1.8-0.6c-0.4,0-0.7,0.2-0.7,0.6c0,0.9,3.6,0.8,3.6,3.1c0,1.4-1.2,2.4-2.9,2.4
			c-1.2,0-2.9-0.7-2.9-1.6c0-0.3,0.3-0.9,0.9-0.9c0.8,0,1.2,0.7,2.1,0.7c0.6,0,0.8-0.2,0.8-0.6c0-0.9-3.6-0.8-3.6-3.1
			c0-1.4,1.2-2.4,2.8-2.4c1,0,2.6,0.5,2.6,1.5C307.7,759.1,307.4,759.6,306.9,759.6"/>
		<path class="st1" d="M310.8,755.3c0,0.6-0.5,1.2-1.2,1.2c-0.6,0-1.1-0.6-1.1-1.2c0-0.6,0.5-1.1,1.1-1.1
			C310.3,754.2,310.8,754.7,310.8,755.3 M308.6,758.4c0-0.7,0.4-1.1,1-1.1s1,0.5,1,1.1v5.5c0,0.7-0.4,1.1-1,1.1s-1-0.5-1-1.1V758.4z
			"/>
		<path class="st1" d="M318.8,764.3c0,2.5-1.6,3.7-3.9,3.7c-0.8,0-3.2-0.4-3.2-1.5c0-0.4,0.4-0.9,0.8-0.9c0.7,0,1.4,0.6,2.6,0.6
			c1,0,1.7-0.6,1.7-1.6v-0.5l0,0c-0.4,0.6-1.1,1-2.1,1c-2.1,0-3.2-1.9-3.2-3.9c0-2.1,1.3-4,3.4-4c0.7,0,1.5,0.3,1.9,0.9
			c0.1-0.5,0.5-0.8,1-0.8c0.6,0,1,0.5,1,1.1L318.8,764.3L318.8,764.3z M315.1,759.1c-1.1,0-1.6,1.1-1.6,2.1c0,1.1,0.5,2.1,1.6,2.1
			s1.6-1,1.6-2C316.8,760.2,316.3,759.1,315.1,759.1"/>
		<path class="st1" d="M320,758.4c0-0.7,0.4-1.1,1-1.1c0.5,0,0.9,0.3,0.9,0.8c0.4-0.6,1-0.8,2-0.8c1.6,0,2.8,1,2.8,2.8v3.9
			c0,0.7-0.4,1.1-1,1.1s-1-0.5-1-1.1v-3.6c0-0.9-0.6-1.4-1.3-1.4c-0.8,0-1.3,0.6-1.3,1.4v3.6c0,0.7-0.4,1.1-1,1.1s-1-0.5-1-1.1v-5.6
			H320z"/>
		<path class="st1" d="M329.5,761.8c0.1,1,1,1.5,1.9,1.5c1,0,1.8-0.8,2.3-0.8c0.4,0,0.8,0.4,0.8,0.9c0,0.9-1.8,1.7-3.3,1.7
			c-2.3,0-3.8-1.7-3.8-3.9c0-2.1,1.5-4,3.7-4s3.7,2,3.7,3.7c0,0.6-0.3,0.9-0.9,0.9L329.5,761.8L329.5,761.8z M332.7,760.5
			c-0.1-0.9-0.7-1.6-1.6-1.6s-1.5,0.7-1.6,1.6H332.7z"/>
		<path class="st1" d="M342.5,763.9c0,0.7-0.4,1.1-1,1.1s-0.9-0.3-1-0.9c-0.4,0.6-1.2,0.9-1.9,0.9c-2.1,0-3.4-1.9-3.4-3.8
			c0-2,1.1-4.1,3.3-4.1c0.7,0,1.4,0.2,1.9,0.7V755c0-0.7,0.4-1.1,1-1.1s1,0.5,1,1.1v8.9H342.5z M338.8,759.1c-1.1,0-1.6,1.1-1.6,2.1
			s0.5,2.1,1.6,2.1s1.6-1.1,1.6-2.1C340.4,760.1,339.9,759.1,338.8,759.1"/>
		<path class="st1" d="M347.5,755.1c0-0.7,0.4-1.1,1-1.1s1,0.5,1,1.1v2.8c0.5-0.5,1.2-0.7,1.9-0.7c2.2,0,3.3,2.1,3.3,4.1
			c0,1.9-1.3,3.8-3.4,3.8c-0.7,0-1.5-0.3-1.9-0.9c-0.1,0.5-0.5,0.9-1,0.9c-0.6,0-1-0.5-1-1.1v-8.9H347.5z M351.1,763.2
			c1.1,0,1.6-1.1,1.6-2.1s-0.5-2.1-1.6-2.1s-1.6,1-1.6,2C349.5,762.1,350,763.2,351.1,763.2"/>
		<path class="st1" d="M355.1,758.7c-0.1-0.2-0.1-0.3-0.1-0.5c0-0.5,0.5-0.9,1-0.9s0.9,0.3,1,0.7l1.4,3.9l1.5-3.9
			c0.2-0.4,0.5-0.7,1-0.7c0.4,0,1,0.4,1,0.9c0,0.2,0,0.4-0.1,0.5l-3.4,8.5c-0.2,0.4-0.5,0.8-1,0.8c-0.7,0-1.1-0.4-1.1-0.9
			c0-0.2,0.1-0.4,0.1-0.6l0.9-2.2L355.1,758.7z"/>
	</g>
</g>
<g>
	<g>
		<g>
			<path class="st2" d="M380.6,82.5h-39l27.7,44.8l8.1-31.9l-8,31.6l-0.1,0.2L329.6,63l4,40.5l-63.4-31.8l8,29.4l-31.9-3.2
				l43.7,46.9l-74.4-26.4l11,21.1l-62.3,5.2l19.2,28.3l-10.8,80.7l-37.9,83.8l35.2-4.3l58.1-43.6l8.9-6.6l-67.1,50.2l50.2,26
				l-21.8-11.3l-28.4-14.7l14.6,33.7l19.3,44.5l-33.9-78.1l-27.7,90.2L128,506.6l41.8-52.1l-20.3,70.7l47.1-35.1l-29.5,74.8l30.7-21
				l4,45.6l49.7-30.6L224.9,598l9.8,47.2l30.8-27.3l11.1,65l14.1-20.5l10.3,18.2l65.1-65.1l33.9,67.2v-67.8v-32v-67v-16.5v-11.3
				l-9.7-19.3l-11.6-13.2l11.3,12.7l0.3,0.5l0,0l0,0l9.7,19.3v-13.7v-34.9v-9.7v-23V383v-23.5v-28.2v-36.9v-22.2v-19.5v-20.1v-34.7
				v-48.5v-39L385.3,64L380.6,82.5z M365.2,365.4L349,327.9l-5.4,18.5l0,0l5.4-18.5l0,0l7.5,17.5L365.2,365.4z M348.5,520.3
				L348.5,520.3l-12.8-3.3L348.5,520.3z M341.8,352.4L341.8,352.4L341.8,352.4C341.9,352.3,341.9,352.3,341.8,352.4L341.8,352.4z
				 M341.7,305.5c-0.1-0.1-0.2-0.1-0.2-0.2h0.1L341.7,305.5z M300.1,322.8l8-3.2l-22.4,9L300.1,322.8z M343.1,352.9L343.1,352.9
				l8.5-1.7L343.1,352.9z M366.7,446.4c-0.1-0.1-0.2-0.2-0.3-0.2L366.7,446.4z M214.8,206.6l100.8,17.9L257,214.1L214.8,206.6z
				 M300.1,375.6l9.7-16.1l30.9-6.1l0,0l-30.9,6.1l-21.1,35.3l31.7,83.7l-18.7-49.3l-13-34.4L300.1,375.6z"/>
			<path class="st2" d="M183.4,173L144,200.4l17,31.7c3.1,6.8,6.1,13.7,8.5,20.9c0.3,0.9,1.7,0.5,1.4-0.4c-0.7-2.1-1.5-4.2-2.3-6.3
				l4,7.4l6.1-45.8L183.4,173z"/>
			<polygon class="st2" points="121.5,427.4 142.1,423.4 154.9,381.8 			"/>
			<polygon class="st2" points="130.8,380.5 154.9,381.8 169.9,333.2 			"/>
			<polygon class="st2" points="366.1,694.3 389.1,661.2 366.1,615.5 336.7,644.8 			"/>
			<path class="st2" d="M657.9,423.4l20.6,4l-33.4-45.6l0,0l24.1-1.3l-39.1-47.3l-66.9-50.1l8.8,6.5l58.1,43.6l35.2,4.3l-37.9-83.8
				l4-7.4c-0.8,2.1-1.6,4.2-2.3,6.3c-0.3,0.9,1.1,1.3,1.4,0.4c2.4-7.1,5.4-14,8.5-20.9l17-31.7L616.6,173l19.2-28.3l-62.3-5.2
				l11-21.1l-74.4,26.4l43.7-46.9l-31.9,3.2l8-29.4l-63.4,31.8l4-40.5l-12,19.4h-39l11.4,44.8l-0.1-0.2l-16-63.2L400,110.3v39v48.5
				v34.7v20.1v19.5v22.2v36.9v28.2V383v23.9v23v9.7v34.9v13.7l9.7-19.3l0,0l0,0l0.3-0.5l11.3-12.7l-11.6,13.2l-9.7,19.3v11.3V516v67
				v32v67.8l33.9-67.2l65.1,65.1l10.3-18.2l14.1,20.5l11.1-65l30.8,27.3l9.8-47.2l-26.5-39.3l49.7,30.6l4-45.6l30.7,21L603.4,490
				l47.1,35.1l-20.3-70.7l41.8,52.1L657.9,423.4z M511.4,394.8l-13,34.4l-18.7,49.3L511.4,394.8l74.8-38.8l-12.1,6.3L511.4,394.8z
				 M451.5,520.3L451.5,520.3l12.8-3.3L451.5,520.3z M456.9,352.9L456.9,352.9l-8.5-1.7L456.9,352.9z M458.4,305.4h0.1
				c-0.1,0.1-0.2,0.1-0.2,0.2L458.4,305.4z M459.3,353.4L459.3,353.4l30.9,6.1L459.3,353.4z M458.2,352.4L458.2,352.4
				C458.2,352.4,458.1,352.3,458.2,352.4L458.2,352.4z M491.8,319.6l8,3.2l14.4,5.8L491.8,319.6z M443.4,345.4l7.5-17.5l0,0
				l5.4,18.5l0,0l-5.4-18.5l-16.1,37.5L443.4,345.4z M433.6,446.2c-0.1,0.1-0.2,0.2-0.3,0.2L433.6,446.2z"/>
			<polygon class="st2" points="433.9,694.3 463.3,644.8 433.9,615.5 410.9,661.2 			"/>
		</g>
	</g>
</g>
<path class="st3" d="M261.8,537.2c-1,0-1,1.5,0,1.5C262.8,538.6,262.8,537.2,261.8,537.2z"/>
<path class="st3" d="M170.9,252.5c-5.4-15.9-13.4-30.6-20-46c-0.4-0.9-1.6-0.1-1.3,0.7c6.6,15.2,14.5,29.9,19.9,45.6
	C169.8,253.8,171.2,253.4,170.9,252.5z"/>
<path class="st3" d="M395.5,524.4c-1,0-1,1.5,0,1.5C396.5,525.8,396.5,524.4,395.5,524.4z"/>
<polygon class="st4" points="348.5,519.8 348.5,530.9 362,526.5 386.7,517.8 400,515.9 400,499.5 374.4,517.8 359.9,523.3 "/>
<path d="M344.7,329c-0.1-0.9-1.6-0.5-1.4,0.4c0,0.1,0,0.1,0,0.2c-3.2,3.2-6,7-9.8,9.5c-0.1-3.5-2.1-7.4-3.6-10.5
	c-0.1-0.2-0.2-0.2-0.3-0.3c0.1-0.4-0.2-0.8-0.7-0.8c-4.5,0.4-8.8,2.6-12.7,4.8c1.2-5.2-0.5-10.6,1-15.9c0.3-0.9-1.2-1.3-1.4-0.4
	c-1.6,5.6,0.4,11.5-1.4,17.1c-0.1,0-0.2-0.1-0.3-0.1c-1,0-1,1.5,0,1.5c0.2,0,0.4-0.1,0.5-0.2c0.2,0.2,0.5,0.3,0.8,0.1
	c4-2.3,8.5-4.9,13.1-5.4c0,0.1,0,0.2,0.1,0.3c1.4,2.9,3.5,6.8,3.4,10.1c-0.3,0.2-0.4,0.6-0.3,0.9c-0.2,0.5,0.4,1.3,1,0.9
	c1.8,1.5,2.7,3.8,3.8,5.8c1.4,2.4,3.4,4.4,4.5,7c0.4,0.9,1.8,0.5,1.4-0.4c1.6-1.1,1-7.3,1-8.6C343.6,339.8,345.6,334.2,344.7,329z
	 M342.2,341.2c-0.1,0.6,0.1,10.2-0.3,11.2c-1.1-2.1-2.7-4-4-6c-1.4-2-2.1-4.2-3.8-5.9c3.6-2.4,6.4-5.8,9.4-9
	C343.4,334.7,342.4,338,342.2,341.2z"/>
<path class="st5" d="M343.5,328.7c0,0,2-2.6,5.6-0.9l-7.4,25.4L343.5,328.7z"/>
<polygon class="st6" points="349,327.9 351.6,351.2 341.6,353.2 "/>
<polygon class="st7" points="343.5,328.7 332.7,341.3 341.6,353.2 "/>
<polygon class="st8" points="332.7,341.3 329.1,328.4 343.5,328.7 "/>
<polygon class="st9" points="329.1,328.4 314.1,334.5 332.7,341.3 "/>
<polygon class="st7" points="314.1,334.5 315.7,316.3 329.1,328.4 "/>
<polygon class="st8" points="315.7,316.3 308.2,319.6 314.1,334.5 "/>
<polygon class="st10" points="349,327.9 364.5,327.9 352.8,306.5 "/>
<polygon class="st6" points="349,327.9 356.6,345.4 364.5,327.9 "/>
<polygon class="st7" points="345.7,421.9 338.5,444.4 365,453.5 "/>
<polygon class="st11" points="379,435 400,429.8 400,439.5 "/>
<polygon class="st12" points="350.1,433.7 345.7,421.9 355.1,421.9 "/>
<polygon class="st10" points="355.1,421.9 365.7,438.3 366.7,446.4 350.1,433.7 "/>
<polygon class="st13" points="355.1,421.9 379,435 365.7,438.3 "/>
<g>
	<path class="st4" d="M365.7,438.3L379,435l21,4.5v48.6l-10-19.8l-11.3-12.7l-13.7-2.1c0,0-13.3-12.8-14.9-19.8l3.9-2.6
		c0,0,10.1,13.5,12.7,15.3L365.7,438.3z"/>
	<path class="st14" d="M365.7,438.3c0,0,28.3,1.2,24.5,30.6l9.7,5.5v-34.9l-21-4.5L365.7,438.3z"/>
</g>
<polygon class="st7" points="374.4,517.8 362.3,479 389.5,507 "/>
<polygon class="st15" points="362.3,479 400,499.5 389.5,507 "/>
<polygon class="st16" points="362.3,479 400,488.1 400,499.5 "/>
<polygon class="st15" points="362.3,479 390.3,468.9 400,488.1 "/>
<polygon class="st8" points="362.3,479 378.7,455.6 390.3,468.9 "/>
<polygon class="st8" points="362.3,479 359.9,523.3 374.4,517.8 "/>
<polygon class="st9" points="362.3,479 365,453.5 378.7,455.6 "/>
<polygon class="st9" points="362.3,479 359.9,523.3 335.8,517 "/>
<polygon class="st6" points="362.3,479 338.5,444.4 365,453.5 "/>
<polygon class="st6" points="362.3,479 327,499.5 335.8,517 "/>
<polygon class="st9" points="362.3,479 320.4,478.5 327,499.5 "/>
<polygon class="st9" points="362.3,479 321.7,453.5 338.5,444.4 "/>
<polygon class="st8" points="362.3,479 321.7,453.5 320.4,478.5 "/>
<polygon class="st7" points="362,526.5 339.4,561.9 359.2,555.9 "/>
<polygon class="st7" points="359.2,555.9 386.7,517.8 374.9,566 "/>
<polygon class="st8" points="386.7,517.8 362,526.5 359.2,555.9 "/>
<polygon class="st9" points="362,526.5 348.5,530.9 339.4,561.9 "/>
<polygon class="st9" points="386.7,517.8 390.3,569.3 374.9,566 "/>
<polygon class="st9" points="359.2,555.9 361,580.6 374.9,566 "/>
<polygon class="st6" points="390.3,569.3 400,515.9 400,582.9 "/>
<polygon class="st6" points="374.9,566 380.3,586 390.3,569.3 "/>
<polygon class="st10" points="390.3,569.3 386.7,517.8 400,515.9 "/>
<polygon class="st17" points="352.8,306.5 351.6,284.6 381.5,269.7 "/>
<polygon class="st17" points="325.6,426.3 321.7,404.2 307.7,415 "/>
<polygon class="st13" points="307.7,415 321.7,453.5 325.6,426.3 "/>
<polygon class="st13" points="381.5,269.7 358.6,252.2 365.1,277.9 "/>
<polygon class="st13" points="301.3,289.6 285.7,328.5 300.1,322.8 "/>
<polygon class="st13" points="301.3,289.6 324.2,261.8 316.3,287.2 "/>
<polygon class="st13" points="307.6,312.2 314.1,300.8 323.4,305.4 "/>
<polygon class="st12" points="314.1,300.8 333.8,294.3 323.4,305.4 "/>
<polygon class="st18" points="333.8,294.3 341.6,305.4 323.4,305.4 "/>
<polygon class="st13" points="333.8,294.3 352.8,306.5 341.6,305.4 "/>
<polygon class="st19" points="352.8,306.5 350.6,319.2 341.6,305.4 "/>
<path class="st4" d="M308.2,319.6l-0.6-7.4l18.8-8.1c0,0,16.3-8.1,24.1,15.2L349,328c0,0-2.4-1.1-5.6,0.8s-15.6,5-27.8-12.4
	L308.2,319.6z"/>
<g>
	<path class="st20" d="M334.8,311.1c5.2,0,9.5,3.4,10.9,8.2c0.3-1,0.5-2.1,0.5-3.2c0-6.3-5.1-11.4-11.4-11.4s-11.4,5.1-11.4,11.4
		c0,1.1,0.2,2.2,0.5,3.2C325.3,314.6,329.6,311.1,334.8,311.1z"/>
	<path class="st21" d="M334.8,327.4c5.2,0,9.5-3.4,10.9-8.2c-1.4-4.7-5.7-8.2-10.9-8.2c-5.2,0-9.5,3.4-10.9,8.2
		C325.3,324,329.6,327.4,334.8,327.4z"/>
</g>
<circle class="st22" cx="336.8" cy="318.5" r="3"/>
<polygon class="st12" points="324.2,261.8 358.6,252.2 361.7,264.3 "/>
<polygon class="st12" points="301.3,289.6 314.1,300.8 316.3,287.2 "/>
<polygon class="st6" points="301.3,289.6 307.6,312.2 314.1,300.8 "/>
<polygon class="st18" points="301.3,289.6 307.6,312.2 308.2,319.6 300.1,322.8 "/>
<polygon class="st18" points="324.2,261.8 337.8,275.7 316.3,287.2 "/>
<polygon class="st18" points="337.8,275.7 361.7,264.3 365.1,277.9 "/>
<polygon class="st19" points="337.8,275.7 351.6,284.6 365.1,277.9 "/>
<polygon class="st19" points="337.8,275.7 324.2,261.8 361.7,264.3 "/>
<polygon class="st23" points="316.3,287.2 333.8,294.3 314.1,300.8 "/>
<polygon class="st23" points="333.8,294.3 351.6,284.6 352.8,306.5 "/>
<polygon class="st3" points="333.8,294.3 337.8,275.7 351.6,284.6 "/>
<polygon class="st24" points="333.8,294.3 337.8,275.7 316.3,287.2 "/>
<polygon class="st25" points="332.7,341.3 309.8,359.5 341.6,353.2 "/>
<polygon class="st26" points="351.6,351.2 328,380.8 309.8,359.5 "/>
<polygon class="st27" points="309.8,359.5 321.7,404.2 328,380.8 "/>
<polygon class="st11" points="351.6,351.2 325.6,426.3 321.7,404.2 "/>
<polygon class="st25" points="351.6,351.2 321.7,404.2 328,380.8 "/>
<polygon class="st27" points="285.7,328.5 300.1,375.6 288.7,394.8 "/>
<polygon class="st28" points="314.1,334.5 309.8,359.5 332.7,341.3 "/>
<polygon class="st29" points="308.2,319.6 314.1,334.5 285.7,328.5 "/>
<polygon class="st2" points="314.1,334.5 309.8,359.5 285.7,328.5 "/>
<polygon class="st2" points="309.8,359.5 288.7,394.8 321.7,404.2 "/>
<polygon class="st19" points="321.7,404.2 307.7,415 288.7,394.8 "/>
<polygon class="st25" points="288.7,394.8 321.7,453.5 307.7,415 "/>
<polygon class="st25" points="285.7,328.5 309.8,359.5 300.1,375.6 "/>
<polygon class="st5" points="381.5,269.7 400,252.6 400,272.1 "/>
<polygon class="st29" points="381.5,269.7 400,294.3 400,272.1 "/>
<polygon class="st30" points="381.5,269.7 374.2,307.6 400,294.3 "/>
<polygon class="st30" points="400,252.6 381.5,214.8 400,232.5 "/>
<polygon class="st31" points="381.5,214.8 381.5,269.7 400,252.6 "/>
<polygon class="st31" points="381.5,214.8 387.4,187.2 400,232.5 "/>
<polygon class="st31" points="374.2,307.6 352.8,306.5 364.5,327.9 "/>
<polygon class="st31" points="324.2,261.8 296,271 301.3,289.6 "/>
<polygon class="st31" points="301.3,289.6 274.2,311.6 285.7,328.5 "/>
<polygon class="st5" points="400,294.3 400,331.3 388.2,300.4 "/>
<polygon class="st23" points="381.5,214.8 358.6,252.2 381.5,269.7 "/>
<polygon class="st23" points="387.4,187.2 400,197.8 400,232.5 "/>
<polygon class="st23" points="324.2,261.8 315.6,224.5 296,271 "/>
<polygon class="st3" points="358.6,252.2 354.7,226.5 315.6,224.5 "/>
<polygon class="st18" points="358.6,252.2 354.7,226.5 365.7,207.9 "/>
<polygon class="st18" points="315.6,224.5 358.6,252.2 324.2,261.8 "/>
<polygon class="st18" points="352.8,306.5 374.2,307.6 381.5,269.7 "/>
<polygon class="st23" points="374.2,307.6 400,331.3 388.2,300.4 "/>
<polygon class="st23" points="374.2,307.6 372.2,329.5 364.5,327.9 "/>
<polygon class="st23" points="372.2,329.5 365.2,365.4 356.6,345.4 "/>
<polygon class="st31" points="349,327.9 365.2,365.4 351.6,351.2 "/>
<polygon class="st2" points="351.6,351.2 348,389.3 365.2,365.4 "/>
<polygon class="st2" points="372.2,329.5 356.6,345.4 364.5,327.9 "/>
<polygon class="st3" points="358.6,252.2 365.7,207.9 381.5,214.8 "/>
<polygon class="st28" points="400,429.8 374.4,416.7 400,406.9 "/>
<polygon class="st32" points="400,406.9 383.5,388 400,383 "/>
<polygon class="st2" points="383.5,388 374.4,416.7 400,406.9 "/>
<polygon class="st2" points="374.4,416.7 379,435 400,429.8 "/>
<polygon class="st2" points="383.5,388 400,359.5 400,383 "/>
<polygon class="st25" points="351.6,351.2 348,389.3 325.6,426.3 "/>
<polygon class="st19" points="348,389.3 345.7,421.9 325.6,426.3 "/>
<polygon class="st33" points="345.7,421.9 338.5,444.4 325.6,426.3 "/>
<polygon class="st33" points="345.7,421.9 365.2,365.4 348,389.3 "/>
<polygon class="st33" points="400,359.5 376.9,356.4 383.5,388 "/>
<polygon class="st33" points="374.4,416.7 379,435 355.1,421.9 "/>
<polygon class="st24" points="383.5,388 365.2,365.4 376.9,356.4 "/>
<polygon class="st24" points="383.5,388 374.4,416.7 355.1,421.9 "/>
<polygon class="st18" points="376.9,356.4 372.2,329.5 365.2,365.4 "/>
<polygon class="st19" points="383.5,388 345.7,421.9 365.2,365.4 "/>
<polygon class="st19" points="376.9,356.4 400,331.3 400,359.5 "/>
<polygon class="st3" points="400,331.3 372.2,329.5 376.9,356.4 "/>
<polygon class="st25" points="400,331.3 374.2,307.6 372.2,329.5 "/>
<polygon class="st11" points="355.1,421.9 345.7,421.9 383.5,388 "/>
<polygon class="st22" points="387.4,187.2 400,149.2 400,197.8 "/>
<polygon class="st22" points="400,149.2 369.2,127.3 400,110.3 "/>
<polygon class="st34" points="369.2,127.3 369.3,127.1 385.3,63.9 400,110.3 "/>
<polygon class="st34" points="387.4,187.2 400,149.2 369.2,127.3 "/>
<polygon class="st34" points="381.5,214.8 366.4,169.7 365.7,207.9 "/>
<polygon class="st34" points="365.7,207.9 329.1,185.4 354.7,226.5 "/>
<polygon class="st35" points="387.4,187.2 366.4,169.7 369.2,127.3 "/>
<polygon class="st35" points="354.7,226.5 289.5,183.2 315.6,224.5 "/>
<polygon class="st36" points="315.6,224.5 257,214.1 228,289.6 "/>
<polygon class="st35" points="365.7,207.9 366.4,169.7 332.3,132.7 "/>
<polygon class="st37" points="354.7,226.5 289.5,183.2 329.1,185.4 "/>
<polygon class="st37" points="381.5,214.8 387.4,187.2 366.4,169.7 "/>
<polygon class="st37" points="332.3,132.7 329.1,185.4 365.7,207.9 "/>
<polygon class="st37" points="219.3,168.5 280.6,227.3 316,202.2 "/>
<polygon class="st37" points="296,271 265.2,261.8 301.3,289.6 "/>
<polygon class="st37" points="301.3,289.6 274.2,311.6 209.4,328.8 "/>
<polygon class="st37" points="285.7,328.5 209.4,328.8 256.3,367.8 "/>
<polygon class="st38" points="265.2,261.8 267.2,304.1 209.4,328.8 "/>
<polygon class="st38" points="296,271 315.6,224.5 265.2,261.8 "/>
<polygon class="st38" points="285.7,328.5 288.7,394.8 256.3,367.8 "/>
<polygon class="st39" points="288.7,394.8 320.4,478.5 321.7,453.5 "/>
<polygon class="st38" points="288.7,394.8 223.3,457.7 301.7,429.2 "/>
<polygon class="st40" points="265.2,261.8 301.3,289.6 267.2,304.1 "/>
<polygon class="st40" points="274.2,311.6 285.7,328.5 209.4,328.8 "/>
<polygon class="st41" points="329.1,185.4 289.9,144.8 289.5,183.2 "/>
<polygon class="st40" points="245.7,176.2 215.5,118.4 289.5,183.2 "/>
<polygon class="st20" points="332.3,132.7 289.9,144.8 270.1,71.7 "/>
<polygon class="st42" points="369.2,127.3 329.6,63 333.5,103.5 "/>
<polygon class="st20" points="341.6,82.5 380.6,82.5 369.2,127.3 "/>
<polygon class="st43" points="226.5,139.5 183.4,173 164.2,144.7 "/>
<polygon class="st42" points="183.4,173 172.6,253.6 214.8,206.6 "/>
<polygon class="st42" points="245.7,176.2 226.5,139.5 183.4,173 "/>
<polygon class="st12" points="125.9,339.4 206.8,429.7 165.4,425.1 "/>
<polygon class="st9" points="169.9,333.2 203.8,411.3 169.9,402.4 "/>
<polygon class="st14" points="169.9,333.2 288.7,394.8 209.4,328.8 "/>
<polygon class="st44" points="198.6,214.4 250.1,287.4 264.6,261.2 "/>
<polygon class="st43" points="169.9,333.2 265.2,261.8 209.4,328.8 "/>
<polygon class="st45" points="169.9,333.2 198.2,347.9 184.5,366.9 "/>
<polygon class="st46" points="169.9,333.2 199,282.1 228,289.6 "/>
<polygon class="st46" points="184.5,366.9 225.9,362.2 198.2,347.9 "/>
<polygon class="st13" points="225.9,362.2 203.8,411.3 184.5,366.9 "/>
<polygon class="st43" points="225.9,362.2 288.7,394.8 203.8,411.3 "/>
<polygon class="st47" points="288.7,394.8 223.3,457.7 203.8,411.3 "/>
<polygon class="st43" points="172.6,253.6 199,282.1 169.9,333.2 "/>
<polygon class="st40" points="172.6,253.6 257,214.1 214.8,206.6 "/>
<polygon class="st1" points="172.6,253.6 257,214.1 199,282.1 "/>
<polygon class="st1" points="172.6,253.6 134.7,337.5 169.9,333.2 "/>
<polygon class="st1" points="183.4,173 144,200.4 178.8,207.9 "/>
<polygon class="st43" points="144,200.4 172.6,253.6 178.8,207.9 "/>
<polygon class="st1" points="215.5,118.4 289.9,144.8 289.5,183.2 "/>
<polygon class="st1" points="333.5,103.5 366.4,169.7 369.2,127.3 "/>
<polygon class="st41" points="333.5,103.5 332.3,132.7 366.4,169.7 "/>
<polygon class="st41" points="245.7,176.2 214.8,206.6 183.4,173 "/>
<polygon class="st48" points="289.9,144.8 246.2,97.9 278.1,101.1 "/>
<polygon class="st42" points="333.5,103.5 270.1,71.7 332.3,132.7 "/>
<polygon class="st42" points="329.1,185.4 289.9,144.8 332.3,132.7 "/>
<polygon class="st42" points="289.5,183.2 315.6,224.5 245.7,176.2 "/>
<polygon class="st9" points="203.8,411.3 169.9,454.5 196.6,490 "/>
<polygon class="st9" points="167.1,564.8 225.6,524.7 196.6,490 "/>
<polygon class="st6" points="203.8,411.3 223.3,457.7 196.6,490 "/>
<polygon class="st6" points="196.6,490 169.9,454.5 149.5,525.1 "/>
<polygon class="st6" points="203.8,411.3 169.9,402.4 169.9,454.5 "/>
<polygon class="st12" points="223.3,457.7 225.6,524.7 196.6,490 "/>
<polygon class="st6" points="223.3,457.7 242.3,500.3 225.6,524.7 "/>
<polygon class="st49" points="223.3,457.7 301.7,429.2 242.3,500.3 "/>
<polygon class="st49" points="142.1,423.4 128,506.6 169.9,454.5 "/>
<polygon class="st49" points="142.1,423.4 121.5,427.4 154.9,381.8 "/>
<polygon class="st46" points="169.9,333.2 130.8,380.5 154.9,381.8 "/>
<polygon class="st50" points="301.7,429.2 320.4,478.5 242.3,500.3 "/>
<polygon class="st51" points="320.4,478.5 266.9,535.7 242.3,500.3 "/>
<polygon class="st51" points="327,499.5 323.3,551.2 335.8,517 "/>
<path class="st51" d="M335.8,517"/>
<polygon class="st52" points="323.3,551.2 348.5,530.9 348.5,520.3 335.8,517 "/>
<polygon class="st52" points="320.4,478.5 327,499.5 266.9,535.7 "/>
<polygon class="st53" points="361,580.6 366.1,615.5 380.3,586 "/>
<polygon class="st39" points="380.3,586 374.9,566 361,580.6 "/>
<polygon class="st39" points="361,580.6 366.1,615.5 318,607.1 "/>
<polygon class="st39" points="323.3,551.2 327,499.5 266.9,535.7 "/>
<polygon class="st39" points="242.3,500.3 266.9,535.7 225.6,524.7 "/>
<polygon class="st53" points="225.6,524.7 251.4,558.7 266.9,535.7 "/>
<polygon class="st52" points="318,607.1 301,680.6 366.1,615.5 "/>
<polygon class="st51" points="366.1,615.5 400,682.7 400,614.9 "/>
<polygon class="st52" points="366.1,615.5 366.1,694.3 389.1,661.2 "/>
<polygon class="st32" points="266.9,535.7 299.1,579.7 323.3,551.2 "/>
<polygon class="st32" points="380.3,586 400,582.9 390.3,569.3 "/>
<polygon class="st32" points="380.3,586 400,614.9 366.1,615.5 "/>
<polygon class="st32" points="366.1,615.5 336.7,644.8 366.1,694.3 "/>
<polygon class="st5" points="380.3,586 400,582.9 400,614.9 "/>
<polygon class="st5" points="359.2,555.9 361,580.6 339.4,561.9 "/>
<polygon class="st5" points="348.5,530.9 339.4,561.9 323.3,551.2 "/>
<polygon class="st5" points="266.9,535.7 265.5,617.9 299.1,579.7 "/>
<polygon class="st29" points="323.3,551.2 318,607.1 339.4,561.9 "/>
<polygon class="st29" points="225.6,524.7 201.7,589.4 251.4,558.7 "/>
<polygon class="st31" points="339.4,561.9 361,580.6 318,607.1 "/>
<polygon class="st31" points="323.3,551.2 318,607.1 299.1,579.7 "/>
<polygon class="st31" points="266.9,535.7 234.7,645.2 265.5,617.9 "/>
<polygon class="st31" points="265.5,617.9 301,680.6 318,607.1 "/>
<polygon class="st54" points="266.9,535.7 224.9,598 234.7,645.2 "/>
<polygon class="st54" points="299.1,579.7 318,607.1 265.5,617.9 "/>
<polygon class="st54" points="225.6,524.7 197.7,543.8 201.7,589.4 "/>
<polygon class="st54" points="265.5,617.9 276.6,682.9 290.7,662.5 "/>
<polygon class="st2" points="338.5,444.4 325.6,426.3 321.7,453.5 "/>
<path class="st3" d="M538.2,537.2c1,0,1,1.5,0,1.5C537.2,538.6,537.2,537.2,538.2,537.2z"/>
<path class="st3" d="M629.1,252.5c5.4-15.9,13.4-30.6,20-46c0.4-0.9,1.6-0.1,1.3,0.7c-6.6,15.2-14.5,29.9-19.9,45.6
	C630.2,253.8,628.8,253.4,629.1,252.5z"/>
<path class="st3" d="M404.5,524.4c1,0,1,1.5,0,1.5C403.5,525.8,403.5,524.4,404.5,524.4z"/>
<polygon class="st4" points="451.5,519.8 451.5,530.9 438,526.5 413.3,517.8 400,515.9 400,499.5 425.6,517.8 440.1,523.3 "/>
<path d="M456.5,345.2c0,1.3-0.6,7.5,1,8.6c-0.3,0.9,1.1,1.2,1.4,0.4c1.1-2.6,3.2-4.6,4.5-7c1.1-2,2-4.3,3.8-5.8
	c0.7,0.4,1.3-0.4,1-0.9c0.1-0.3,0-0.7-0.3-0.9c-0.1-3.3,2-7.2,3.4-10.1c0.1-0.1,0.1-0.2,0.1-0.3c4.6,0.5,9.2,3.1,13.1,5.4
	c0.3,0.2,0.6,0.1,0.8-0.1c0.1,0.1,0.3,0.2,0.5,0.2c1,0,1-1.5,0-1.5c-0.1,0-0.2,0-0.3,0.1c-1.8-5.6,0.2-11.5-1.4-17.1
	c-0.3-0.9-1.7-0.5-1.4,0.4c1.5,5.2-0.2,10.6,1,15.9c-3.9-2.2-8.3-4.4-12.7-4.8c-0.5,0-0.7,0.4-0.7,0.8c-0.1,0.1-0.2,0.1-0.3,0.3
	c-1.5,3-3.6,7-3.6,10.5c-3.8-2.5-6.6-6.3-9.8-9.5c0-0.1,0-0.1,0-0.2c0.1-0.9-1.3-1.3-1.4-0.4C454.5,334.2,456.4,339.8,456.5,345.2z
	 M456.6,331.5c3,3.1,5.7,6.6,9.4,9c-1.7,1.7-2.4,3.8-3.8,5.9c-1.4,2-2.9,3.9-4,6c-0.4-1-0.3-10.6-0.3-11.2
	C457.6,338,456.6,334.7,456.6,331.5z"/>
<path class="st5" d="M456.6,328.7c0,0-2-2.6-5.6-0.9l7.4,25.4L456.6,328.7z"/>
<polygon class="st6" points="451,327.9 448.4,351.2 458.4,353.2 "/>
<polygon class="st7" points="456.6,328.7 467.3,341.3 458.4,353.2 "/>
<polygon class="st8" points="467.3,341.3 470.9,328.4 456.6,328.7 "/>
<polygon class="st9" points="470.9,328.4 485.9,334.5 467.3,341.3 "/>
<polygon class="st7" points="485.9,334.5 484.4,316.3 470.9,328.4 "/>
<polygon class="st8" points="484.4,316.3 491.8,319.6 485.9,334.5 "/>
<polygon class="st10" points="451,327.9 435.5,327.9 447.2,306.5 "/>
<polygon class="st6" points="451,327.9 443.4,345.4 435.5,327.9 "/>
<polygon class="st7" points="454.3,421.9 461.5,444.4 435,453.5 "/>
<polygon class="st11" points="421,435 400,429.8 400,439.5 "/>
<polygon class="st12" points="449.9,433.7 454.3,421.9 444.9,421.9 "/>
<polygon class="st10" points="444.9,421.9 434.3,438.3 433.3,446.4 449.9,433.7 "/>
<polygon class="st13" points="444.9,421.9 421,435 434.3,438.3 "/>
<g>
	<path class="st4" d="M434.3,438.3L421,435l-21,4.5v48.6l10-19.8l11.3-12.7l13.7-2.1c0,0,13.3-12.8,14.9-19.8l-3.9-2.6
		c0,0-10.1,13.5-12.7,15.3L434.3,438.3z"/>
	<path class="st14" d="M434.3,438.3c0,0-28.3,1.2-24.5,30.6l-9.7,5.5v-34.9l21-4.5L434.3,438.3z"/>
</g>
<polygon class="st7" points="425.6,517.8 437.7,479 410.5,507 "/>
<polygon class="st15" points="437.7,479 400,499.5 410.5,507 "/>
<polygon class="st16" points="437.7,479 400,488.1 400,499.5 "/>
<polygon class="st15" points="437.7,479 409.7,468.9 400,488.1 "/>
<polygon class="st8" points="437.7,479 421.3,455.6 409.7,468.9 "/>
<polygon class="st8" points="437.7,479 440.1,523.3 425.6,517.8 "/>
<polygon class="st9" points="437.7,479 435,453.5 421.3,455.6 "/>
<polygon class="st9" points="437.7,479 440.1,523.3 464.2,517 "/>
<polygon class="st6" points="437.7,479 461.5,444.4 435,453.5 "/>
<polygon class="st6" points="437.7,479 473,499.5 464.2,517 "/>
<polygon class="st9" points="437.7,479 479.6,478.5 473,499.5 "/>
<polygon class="st9" points="437.7,479 478.3,453.5 461.5,444.4 "/>
<polygon class="st8" points="437.7,479 478.3,453.5 479.6,478.5 "/>
<polygon class="st7" points="438,526.5 460.6,561.9 440.8,555.9 "/>
<polygon class="st7" points="440.8,555.9 413.3,517.8 425.1,566 "/>
<polygon class="st8" points="413.3,517.8 438,526.5 440.8,555.9 "/>
<polygon class="st9" points="438,526.5 451.5,530.9 460.6,561.9 "/>
<polygon class="st9" points="413.3,517.8 409.7,569.3 425.1,566 "/>
<polygon class="st9" points="440.8,555.9 439,580.6 425.1,566 "/>
<polygon class="st6" points="409.7,569.3 400,515.9 400,582.9 "/>
<polygon class="st6" points="425.1,566 419.7,586 409.7,569.3 "/>
<polygon class="st10" points="409.7,569.3 413.3,517.8 400,515.9 "/>
<polygon class="st17" points="447.2,306.5 448.4,284.6 418.5,269.7 "/>
<polygon class="st17" points="474.4,426.3 478.3,404.2 492.3,415 "/>
<polygon class="st13" points="492.3,415 478.3,453.5 474.4,426.3 "/>
<polygon class="st13" points="418.5,269.7 441.4,252.2 434.9,277.9 "/>
<polygon class="st13" points="498.7,289.6 514.3,328.5 499.9,322.8 "/>
<polygon class="st13" points="498.7,289.6 475.8,261.8 483.7,287.2 "/>
<polygon class="st13" points="492.4,312.2 485.9,300.8 476.6,305.4 "/>
<polygon class="st12" points="485.9,300.8 466.2,294.3 476.6,305.4 "/>
<polygon class="st18" points="466.2,294.3 458.4,305.4 476.6,305.4 "/>
<polygon class="st13" points="466.2,294.3 447.2,306.5 458.4,305.4 "/>
<polygon class="st19" points="447.2,306.5 449.4,319.2 458.4,305.4 "/>
<path class="st4" d="M491.8,319.6l0.6-7.4l-18.8-8.1c0,0-16.3-8.1-24.1,15.2l1.5,8.7c0,0,2.4-1.1,5.6,0.8s15.6,5,27.8-12.4
	L491.8,319.6z"/>
<g>
	<path class="st20" d="M465.2,311.1c-5.2,0-9.5,3.4-10.9,8.2c-0.3-1-0.5-2.1-0.5-3.2c0-6.3,5.1-11.4,11.4-11.4s11.4,5.1,11.4,11.4
		c0,1.1-0.2,2.2-0.5,3.2C474.7,314.6,470.4,311.1,465.2,311.1z"/>
	<path class="st21" d="M465.2,327.4c-5.2,0-9.5-3.4-10.9-8.2c1.4-4.7,5.7-8.2,10.9-8.2s9.5,3.4,10.9,8.2
		C474.7,324,470.4,327.4,465.2,327.4z"/>
</g>
<circle class="st22" cx="469.3" cy="319.6" r="3"/>
<polygon class="st12" points="475.8,261.8 441.4,252.2 438.3,264.3 "/>
<polygon class="st12" points="498.7,289.6 485.9,300.8 483.7,287.2 "/>
<polygon class="st6" points="498.7,289.6 492.4,312.2 485.9,300.8 "/>
<polygon class="st18" points="498.7,289.6 492.4,312.2 491.8,319.6 499.9,322.8 "/>
<polygon class="st18" points="475.8,261.8 462.2,275.7 483.7,287.2 "/>
<polygon class="st18" points="462.2,275.7 438.3,264.3 434.9,277.9 "/>
<polygon class="st19" points="462.2,275.7 448.4,284.6 434.9,277.9 "/>
<polygon class="st19" points="462.2,275.7 475.8,261.8 438.3,264.3 "/>
<polygon class="st23" points="483.7,287.2 466.2,294.3 485.9,300.8 "/>
<polygon class="st23" points="466.2,294.3 448.4,284.6 447.2,306.5 "/>
<polygon class="st3" points="466.2,294.3 462.2,275.7 448.4,284.6 "/>
<polygon class="st24" points="466.2,294.3 462.2,275.7 483.7,287.2 "/>
<polygon class="st25" points="467.3,341.3 490.2,359.5 458.4,353.2 "/>
<polygon class="st26" points="448.4,351.2 472,380.8 490.2,359.5 "/>
<polygon class="st27" points="490.2,359.5 478.3,404.2 472,380.8 "/>
<polygon class="st11" points="448.4,351.2 474.4,426.3 478.3,404.2 "/>
<polygon class="st25" points="448.4,351.2 478.3,404.2 472,380.8 "/>
<polygon class="st27" points="514.3,328.5 499.9,375.6 511.4,394.8 "/>
<polygon class="st28" points="485.9,334.5 490.2,359.5 467.3,341.3 "/>
<polygon class="st29" points="491.8,319.6 485.9,334.5 514.3,328.5 "/>
<polygon class="st2" points="485.9,334.5 490.2,359.5 514.3,328.5 "/>
<polygon class="st2" points="490.2,359.5 511.4,394.8 478.3,404.2 "/>
<polygon class="st19" points="478.3,404.2 492.3,415 511.4,394.8 "/>
<polygon class="st25" points="511.4,394.8 478.3,453.5 492.3,415 "/>
<polygon class="st25" points="514.3,328.5 490.2,359.5 499.9,375.6 "/>
<polygon class="st5" points="418.5,269.7 400,252.6 400,272.1 "/>
<polygon class="st29" points="418.5,269.7 400,294.3 400,272.1 "/>
<polygon class="st30" points="418.5,269.7 425.8,307.6 400,294.3 "/>
<polygon class="st30" points="400,252.6 418.5,214.8 400,232.5 "/>
<polygon class="st31" points="418.5,214.8 418.5,269.7 400,252.6 "/>
<polygon class="st31" points="418.5,214.8 412.6,187.2 400,232.5 "/>
<polygon class="st31" points="425.8,307.6 447.2,306.5 435.5,327.9 "/>
<polygon class="st31" points="475.8,261.8 504,271 498.7,289.6 "/>
<polygon class="st31" points="498.7,289.6 525.8,311.6 514.3,328.5 "/>
<polygon class="st5" points="400,294.3 400,331.3 411.8,300.4 "/>
<polygon class="st23" points="418.5,214.8 441.4,252.2 418.5,269.7 "/>
<polygon class="st23" points="412.6,187.2 400,197.8 400,232.5 "/>
<polygon class="st23" points="475.8,261.8 484.4,224.5 504,271 "/>
<polygon class="st3" points="441.4,252.2 445.3,226.5 484.4,224.5 "/>
<polygon class="st18" points="441.4,252.2 445.3,226.5 434.3,207.9 "/>
<polygon class="st18" points="484.4,224.5 441.4,252.2 475.8,261.8 "/>
<polygon class="st18" points="447.2,306.5 425.8,307.6 418.5,269.7 "/>
<polygon class="st23" points="425.8,307.6 400,331.3 411.8,300.4 "/>
<polygon class="st23" points="425.8,307.6 427.8,329.5 435.5,327.9 "/>
<polygon class="st23" points="427.8,329.5 434.8,365.4 443.4,345.4 "/>
<polygon class="st31" points="451,327.9 434.8,365.4 448.4,351.2 "/>
<polygon class="st2" points="448.4,351.2 452.1,389.3 434.8,365.4 "/>
<polygon class="st2" points="427.8,329.5 443.4,345.4 435.5,327.9 "/>
<polygon class="st3" points="441.4,252.2 434.3,207.9 418.5,214.8 "/>
<polygon class="st28" points="400,429.8 425.6,416.7 400,406.9 "/>
<polygon class="st32" points="400,406.9 416.5,388 400,383 "/>
<polygon class="st2" points="416.5,388 425.6,416.7 400,406.9 "/>
<polygon class="st2" points="425.6,416.7 421,435 400,429.8 "/>
<polygon class="st2" points="416.5,388 400,359.5 400,383 "/>
<polygon class="st25" points="448.4,351.2 452.1,389.3 474.4,426.3 "/>
<polygon class="st19" points="452.1,389.3 454.3,421.9 474.4,426.3 "/>
<polygon class="st33" points="454.3,421.9 461.5,444.4 474.4,426.3 "/>
<polygon class="st33" points="454.3,421.9 434.8,365.4 452.1,389.3 "/>
<polygon class="st33" points="400,359.5 423.1,356.4 416.5,388 "/>
<polygon class="st33" points="425.6,416.7 421,435 444.9,421.9 "/>
<polygon class="st24" points="416.5,388 434.8,365.4 423.1,356.4 "/>
<polygon class="st24" points="416.5,388 425.6,416.7 444.9,421.9 "/>
<polygon class="st18" points="423.1,356.4 427.8,329.5 434.8,365.4 "/>
<polygon class="st19" points="416.5,388 454.3,421.9 434.8,365.4 "/>
<polygon class="st19" points="423.1,356.4 400,331.3 400,359.5 "/>
<polygon class="st3" points="400,331.3 427.8,329.5 423.1,356.4 "/>
<polygon class="st25" points="400,331.3 425.8,307.6 427.8,329.5 "/>
<polygon class="st11" points="444.9,421.9 454.3,421.9 416.5,388 "/>
<polygon class="st22" points="412.6,187.2 400,149.2 400,197.8 "/>
<polygon class="st22" points="400,149.2 430.8,127.3 400,110.3 "/>
<polygon class="st34" points="430.8,127.3 430.7,127.1 414.7,63.9 400,110.3 "/>
<polygon class="st34" points="412.6,187.2 400,149.2 430.8,127.3 "/>
<polygon class="st34" points="418.5,214.8 433.6,169.7 434.3,207.9 "/>
<polygon class="st34" points="434.3,207.9 470.9,185.4 445.3,226.5 "/>
<polygon class="st35" points="412.6,187.2 433.6,169.7 430.8,127.3 "/>
<polygon class="st35" points="445.3,226.5 510.5,183.2 484.4,224.5 "/>
<polygon class="st36" points="484.4,224.5 543,214.1 572,289.6 "/>
<polygon class="st35" points="434.3,207.9 433.6,169.7 467.7,132.7 "/>
<polygon class="st37" points="445.3,226.5 510.5,183.2 470.9,185.4 "/>
<polygon class="st37" points="418.5,214.8 412.6,187.2 433.6,169.7 "/>
<polygon class="st37" points="467.7,132.7 470.9,185.4 434.3,207.9 "/>
<polygon class="st37" points="484.4,224.5 554.3,176.2 585.2,206.6 "/>
<polygon class="st37" points="504,271 534.8,261.8 498.7,289.6 "/>
<polygon class="st37" points="498.7,289.6 525.8,311.6 590.6,328.8 "/>
<polygon class="st37" points="514.3,328.5 590.6,328.8 543.7,367.8 "/>
<polygon class="st38" points="534.8,261.8 532.8,304.1 590.6,328.8 "/>
<polygon class="st38" points="504,271 484.4,224.5 534.8,261.8 "/>
<polygon class="st38" points="514.3,328.5 511.4,394.8 543.7,367.8 "/>
<polygon class="st39" points="511.4,394.8 479.6,478.5 478.3,453.5 "/>
<polygon class="st38" points="511.4,394.8 576.7,457.7 498.3,429.2 "/>
<polygon class="st40" points="534.8,261.8 498.7,289.6 532.8,304.1 "/>
<polygon class="st40" points="525.8,311.6 514.3,328.5 590.6,328.8 "/>
<polygon class="st41" points="470.9,185.4 510.1,144.8 510.5,183.2 "/>
<polygon class="st40" points="554.3,176.2 584.5,118.4 510.5,183.2 "/>
<polygon class="st20" points="467.7,132.7 510.1,144.8 529.9,71.7 "/>
<polygon class="st42" points="430.8,127.3 470.4,63 466.5,103.5 "/>
<polygon class="st20" points="458.4,82.5 419.4,82.5 430.8,127.3 "/>
<polygon class="st43" points="573.5,139.5 616.6,173 635.8,144.7 "/>
<polygon class="st42" points="616.6,173 627.4,253.6 585.2,206.6 "/>
<polygon class="st42" points="554.3,176.2 573.5,139.5 616.6,173 "/>
<polygon class="st12" points="630.1,333.2 630.1,454.5 657.9,423.4 "/>
<polygon class="st9" points="630.1,333.2 596.2,411.3 630.1,402.4 "/>
<polygon class="st14" points="630.1,333.2 511.4,394.8 590.6,328.8 "/>
<polygon class="st44" points="543,214.1 601,282.1 572,289.6 "/>
<polygon class="st43" points="630.1,333.2 534.8,261.8 590.6,328.8 "/>
<polygon class="st45" points="630.1,333.2 601.8,347.9 615.5,366.9 "/>
<polygon class="st46" points="630.1,333.2 601,282.1 572,289.6 "/>
<polygon class="st46" points="615.5,366.9 574.1,362.2 601.8,347.9 "/>
<polygon class="st13" points="574.1,362.2 596.2,411.3 615.5,366.9 "/>
<polygon class="st43" points="574.1,362.2 511.4,394.8 596.2,411.3 "/>
<polygon class="st47" points="511.4,394.8 576.7,457.7 596.2,411.3 "/>
<polygon class="st43" points="627.4,253.6 601,282.1 630.1,333.2 "/>
<polygon class="st40" points="627.4,253.6 543,214.1 585.2,206.6 "/>
<polygon class="st1" points="627.4,253.6 543,214.1 601,282.1 "/>
<polygon class="st1" points="627.4,253.6 665.3,337.5 630.1,333.2 "/>
<polygon class="st1" points="616.6,173 656,200.4 621.2,207.9 "/>
<polygon class="st43" points="656,200.4 627.4,253.6 621.2,207.9 "/>
<polygon class="st1" points="584.5,118.4 510.1,144.8 510.5,183.2 "/>
<polygon class="st1" points="466.5,103.5 433.6,169.7 430.8,127.3 "/>
<polygon class="st41" points="466.5,103.5 467.7,132.7 433.6,169.7 "/>
<polygon class="st41" points="554.3,176.2 585.2,206.6 616.6,173 "/>
<polygon class="st48" points="510.1,144.8 553.8,97.9 521.9,101.1 "/>
<polygon class="st42" points="466.5,103.5 529.9,71.7 467.7,132.7 "/>
<polygon class="st42" points="470.9,185.4 510.1,144.8 467.7,132.7 "/>
<polygon class="st42" points="510.5,183.2 484.4,224.5 554.3,176.2 "/>
<polygon class="st9" points="596.2,411.3 630.1,454.5 603.4,490 "/>
<polygon class="st9" points="632.9,564.8 574.4,524.7 603.4,490 "/>
<polygon class="st6" points="596.2,411.3 576.7,457.7 603.4,490 "/>
<polygon class="st6" points="603.4,490 630.1,454.5 650.5,525.1 "/>
<polygon class="st6" points="596.2,411.3 630.1,402.4 630.1,454.5 "/>
<polygon class="st12" points="576.7,457.7 574.4,524.7 603.4,490 "/>
<polygon class="st6" points="576.7,457.7 557.7,500.3 574.4,524.7 "/>
<polygon class="st49" points="576.7,457.7 498.3,429.2 557.7,500.3 "/>
<polygon class="st49" points="657.9,423.4 672,506.6 630.1,454.5 "/>
<polygon class="st49" points="657.9,423.4 678.5,427.4 645.1,381.8 "/>
<polygon class="st46" points="630.1,333.2 669.2,380.5 645.1,381.8 "/>
<polygon class="st50" points="498.3,429.2 479.6,478.5 557.7,500.3 "/>
<polygon class="st51" points="479.6,478.5 533.1,535.7 557.7,500.3 "/>
<polygon class="st51" points="473,499.5 476.7,551.2 464.2,517 "/>
<path class="st51" d="M464.2,517"/>
<polygon class="st52" points="476.7,551.2 451.5,530.9 451.5,520.3 464.2,517 "/>
<polygon class="st52" points="479.6,478.5 473,499.5 533.1,535.7 "/>
<polygon class="st53" points="439,580.6 433.9,615.5 419.7,586 "/>
<polygon class="st39" points="419.7,586 425.1,566 439,580.6 "/>
<polygon class="st39" points="439,580.6 433.9,615.5 482,607.1 "/>
<polygon class="st39" points="476.7,551.2 473,499.5 533.1,535.7 "/>
<polygon class="st39" points="557.7,500.3 533.1,535.7 574.4,524.7 "/>
<polygon class="st53" points="574.4,524.7 548.6,558.7 533.1,535.7 "/>
<polygon class="st52" points="482,607.1 499.1,680.6 433.9,615.5 "/>
<polygon class="st51" points="433.9,615.5 400,682.7 400,614.9 "/>
<polygon class="st52" points="433.9,615.5 433.9,694.3 410.9,661.2 "/>
<polygon class="st32" points="533.1,535.7 500.9,579.7 476.7,551.2 "/>
<polygon class="st32" points="419.7,586 400,582.9 409.7,569.3 "/>
<polygon class="st32" points="419.7,586 400,614.9 433.9,615.5 "/>
<polygon class="st32" points="433.9,615.5 463.3,644.8 433.9,694.3 "/>
<polygon class="st5" points="419.7,586 400,582.9 400,614.9 "/>
<polygon class="st5" points="440.8,555.9 439,580.6 460.6,561.9 "/>
<polygon class="st5" points="451.5,530.9 460.6,561.9 476.7,551.2 "/>
<polygon class="st5" points="533.1,535.7 534.5,617.9 500.9,579.7 "/>
<polygon class="st29" points="476.7,551.2 482,607.1 460.6,561.9 "/>
<polygon class="st29" points="574.4,524.7 598.3,589.4 548.6,558.7 "/>
<polygon class="st31" points="460.6,561.9 439,580.6 482,607.1 "/>
<polygon class="st31" points="476.7,551.2 482,607.1 500.9,579.7 "/>
<polygon class="st31" points="533.1,535.7 565.3,645.2 534.5,617.9 "/>
<polygon class="st31" points="534.5,617.9 499.1,680.6 482,607.1 "/>
<polygon class="st54" points="533.1,535.7 575.1,598 565.3,645.2 "/>
<polygon class="st54" points="500.9,579.7 482,607.1 534.5,617.9 "/>
<polygon class="st54" points="574.4,524.7 602.3,543.8 598.3,589.4 "/>
<polygon class="st54" points="534.5,617.9 523.4,682.9 509.3,662.5 "/>
<polygon class="st2" points="461.5,444.4 474.4,426.3 478.3,453.5 "/>
</svg>
